<?xml version="1.0" encoding="iso-8859-1"?>
<!-- Generator: Adobe Illustrator 18.1.1, SVG Export Plug-In . SVG Version: 6.00 Build 0)  -->
<svg version="1.1" id="Capa_1" xmlns="http://www.w3.org/2000/svg" xmlns:xlink="http://www.w3.org/1999/xlink" x="0px" y="0px"
	 viewBox="0 0 51.787 51.787" style="enable-background:new 0 0 51.787 51.787;" xml:space="preserve">
<g>
	<g>
		<path d="M25.892,0c-7.646,0-13.845,6.198-13.845,13.845c0,1.494,0.244,2.929,0.68,4.274c0.981,3.461,12.292,33.668,12.292,33.668
			s12.014-27.703,13.83-33.096c0.565-1.511,0.891-3.14,0.891-4.848C39.738,6.199,33.539,0,25.892,0z M25.892,24.761
			c-6,0-10.865-4.867-10.865-10.865c0-6.003,4.865-10.868,10.865-10.868c6.003,0,10.866,4.865,10.866,10.868
			C36.758,19.894,31.895,24.761,25.892,24.761z"/>
		<path d="M30.511,6.326h-9.237c-0.948,0-1.72,0.835-1.72,1.866v10.039c0,0.685,0.341,1.28,0.848,1.604v1.073
			c0,0.353,0.567,0.636,1.271,0.636c0.701,0,1.271-0.283,1.271-0.636v-0.812H24.5v-0.001h3.217v0.001h1.195v0.812
			c0,0.353,0.568,0.636,1.271,0.636s1.271-0.283,1.271-0.636v-1.116c0.471-0.334,0.78-0.907,0.78-1.562V8.191
			C32.232,7.162,31.461,6.326,30.511,6.326z M23.22,7.121h5.344V7.64H23.22V7.121z M24.291,17.061h-3.373v-1.248h3.373V17.061z
			 M27.715,19.941h-3.217v-0.99h3.217V19.941z M31.037,17.061h-3.374v-1.248h3.374V17.061z M31.185,12.773
			c0,0.127-0.224,0.23-0.5,0.23H21.1c-0.275,0-0.499-0.104-0.499-0.23V8.339c0-0.128,0.224-0.232,0.499-0.232h9.585
			c0.276,0,0.5,0.104,0.5,0.232V12.773z"/>
	</g>
	<g>
	</g>
	<g>
	</g>
	<g>
	</g>
	<g>
	</g>
	<g>
	</g>
	<g>
	</g>
	<g>
	</g>
	<g>
	</g>
	<g>
	</g>
	<g>
	</g>
	<g>
	</g>
	<g>
	</g>
	<g>
	</g>
	<g>
	</g>
	<g>
	</g>
</g>
<g>
</g>
<g>
</g>
<g>
</g>
<g>
</g>
<g>
</g>
<g>
</g>
<g>
</g>
<g>
</g>
<g>
</g>
<g>
</g>
<g>
</g>
<g>
</g>
<g>
</g>
<g>
</g>
<g>
</g>
</svg>
